<mxfile host="Electron" modified="2023-12-28T14:12:04.257Z" agent="Mozilla/5.0 (Macintosh; Intel Mac OS X 10_15_7) AppleWebKit/537.36 (KHTML, like Gecko) draw.io/22.1.11 Chrome/114.0.5735.289 Electron/25.9.8 Safari/537.36" etag="JyNcPvGTQLoZoi04oHSL" version="22.1.11" type="device">
  <diagram id="WL_BcojsNtY35LqhQKYd" name="Operation">
    <mxGraphModel dx="1004" dy="709" grid="1" gridSize="10" guides="1" tooltips="1" connect="1" arrows="1" fold="1" page="1" pageScale="1" pageWidth="827" pageHeight="1169" math="0" shadow="0">
      <root>
        <mxCell id="0" />
        <mxCell id="1" parent="0" />
        <mxCell id="V5WV5Fi2zaHLXMwLLJgx-125" value="" style="edgeStyle=orthogonalEdgeStyle;rounded=0;orthogonalLoop=1;jettySize=auto;html=1;" edge="1" parent="1" source="V5WV5Fi2zaHLXMwLLJgx-121" target="V5WV5Fi2zaHLXMwLLJgx-123">
          <mxGeometry relative="1" as="geometry" />
        </mxCell>
        <mxCell id="V5WV5Fi2zaHLXMwLLJgx-121" value="Action" style="html=1;whiteSpace=wrap;container=1;recursiveResize=0;collapsible=0;fontSize=22;" vertex="1" parent="1">
          <mxGeometry x="100" y="70" width="160" height="70" as="geometry" />
        </mxCell>
        <mxCell id="V5WV5Fi2zaHLXMwLLJgx-122" value="" style="triangle;html=1;whiteSpace=wrap;" vertex="1" parent="V5WV5Fi2zaHLXMwLLJgx-121">
          <mxGeometry x="20" y="20" width="20" height="30" as="geometry" />
        </mxCell>
        <mxCell id="V5WV5Fi2zaHLXMwLLJgx-128" value="" style="edgeStyle=orthogonalEdgeStyle;rounded=0;orthogonalLoop=1;jettySize=auto;html=1;" edge="1" parent="1" source="V5WV5Fi2zaHLXMwLLJgx-123" target="V5WV5Fi2zaHLXMwLLJgx-126">
          <mxGeometry relative="1" as="geometry" />
        </mxCell>
        <mxCell id="V5WV5Fi2zaHLXMwLLJgx-123" value="Optimal Datastructure" style="html=1;whiteSpace=wrap;container=1;recursiveResize=0;collapsible=0;fontSize=22;" vertex="1" parent="1">
          <mxGeometry x="340" y="70" width="330" height="70" as="geometry" />
        </mxCell>
        <mxCell id="V5WV5Fi2zaHLXMwLLJgx-124" value="" style="triangle;html=1;whiteSpace=wrap;" vertex="1" parent="V5WV5Fi2zaHLXMwLLJgx-123">
          <mxGeometry x="20" y="20" width="20" height="30" as="geometry" />
        </mxCell>
        <mxCell id="V5WV5Fi2zaHLXMwLLJgx-131" value="" style="edgeStyle=orthogonalEdgeStyle;rounded=0;orthogonalLoop=1;jettySize=auto;html=1;" edge="1" parent="1" source="V5WV5Fi2zaHLXMwLLJgx-126" target="V5WV5Fi2zaHLXMwLLJgx-129">
          <mxGeometry relative="1" as="geometry" />
        </mxCell>
        <mxCell id="V5WV5Fi2zaHLXMwLLJgx-126" value="Time Complexity" style="html=1;whiteSpace=wrap;container=1;recursiveResize=0;collapsible=0;fontSize=22;" vertex="1" parent="1">
          <mxGeometry x="730" y="70" width="270" height="70" as="geometry" />
        </mxCell>
        <mxCell id="V5WV5Fi2zaHLXMwLLJgx-127" value="" style="triangle;html=1;whiteSpace=wrap;" vertex="1" parent="V5WV5Fi2zaHLXMwLLJgx-126">
          <mxGeometry x="20" y="20" width="20" height="30" as="geometry" />
        </mxCell>
        <mxCell id="V5WV5Fi2zaHLXMwLLJgx-129" value="Space Complexity" style="html=1;whiteSpace=wrap;container=1;recursiveResize=0;collapsible=0;fontSize=22;" vertex="1" parent="1">
          <mxGeometry x="1060" y="70" width="280" height="70" as="geometry" />
        </mxCell>
        <mxCell id="V5WV5Fi2zaHLXMwLLJgx-130" value="" style="triangle;html=1;whiteSpace=wrap;" vertex="1" parent="V5WV5Fi2zaHLXMwLLJgx-129">
          <mxGeometry x="20" y="20" width="20" height="30" as="geometry" />
        </mxCell>
        <mxCell id="V5WV5Fi2zaHLXMwLLJgx-134" value="" style="edgeStyle=orthogonalEdgeStyle;rounded=0;orthogonalLoop=1;jettySize=auto;html=1;" edge="1" parent="1" source="V5WV5Fi2zaHLXMwLLJgx-132" target="V5WV5Fi2zaHLXMwLLJgx-133">
          <mxGeometry relative="1" as="geometry" />
        </mxCell>
        <mxCell id="V5WV5Fi2zaHLXMwLLJgx-132" value="Search by Key (in file)" style="rounded=1;whiteSpace=wrap;html=1;fontSize=17;" vertex="1" parent="1">
          <mxGeometry x="120" y="190" width="130" height="60" as="geometry" />
        </mxCell>
        <mxCell id="Kz6114-rbfVEzrSgnJsU-2" value="" style="edgeStyle=orthogonalEdgeStyle;rounded=0;orthogonalLoop=1;jettySize=auto;html=1;" edge="1" parent="1" source="V5WV5Fi2zaHLXMwLLJgx-133" target="Kz6114-rbfVEzrSgnJsU-1">
          <mxGeometry relative="1" as="geometry" />
        </mxCell>
        <mxCell id="V5WV5Fi2zaHLXMwLLJgx-133" value="Hash table" style="whiteSpace=wrap;html=1;fontSize=17;rounded=1;" vertex="1" parent="1">
          <mxGeometry x="440" y="190" width="120" height="60" as="geometry" />
        </mxCell>
        <mxCell id="Kz6114-rbfVEzrSgnJsU-4" value="" style="edgeStyle=orthogonalEdgeStyle;rounded=0;orthogonalLoop=1;jettySize=auto;html=1;" edge="1" parent="1" source="Kz6114-rbfVEzrSgnJsU-1" target="Kz6114-rbfVEzrSgnJsU-3">
          <mxGeometry relative="1" as="geometry" />
        </mxCell>
        <mxCell id="Kz6114-rbfVEzrSgnJsU-1" value="O(1)" style="whiteSpace=wrap;html=1;fontSize=17;rounded=1;" vertex="1" parent="1">
          <mxGeometry x="805" y="190" width="120" height="60" as="geometry" />
        </mxCell>
        <mxCell id="Kz6114-rbfVEzrSgnJsU-3" value="1 parameter in file" style="rounded=1;whiteSpace=wrap;html=1;fontSize=17;" vertex="1" parent="1">
          <mxGeometry x="1140" y="190" width="120" height="60" as="geometry" />
        </mxCell>
      </root>
    </mxGraphModel>
  </diagram>
</mxfile>
